<?xml version="1.0" encoding="UTF-8"?> <svg xmlns="http://www.w3.org/2000/svg" xmlns:xlink="http://www.w3.org/1999/xlink" id="Ebene_1" data-name="Ebene 1" viewBox="0 0 300.66 60.21"><defs><style>.cls-1{fill:url(#linear-gradient);}.cls-2{fill:none;stroke:#ee3235;stroke-miterlimit:22.93;stroke-width:0.5px;}.cls-3{fill:url(#radial-gradient);}.cls-4{fill:#2b2e31;}.cls-5{mask:url(#mask);}.cls-6{fill:url(#radial-gradient-2);}.cls-7{fill:#ee3235;}.cls-8{fill:#fff;fill-rule:evenodd;}.cls-9{fill:#808285;}</style><linearGradient id="linear-gradient" x1="274.55" y1="283.74" x2="293.89" y2="264.39" gradientUnits="userSpaceOnUse"><stop offset="0.1"></stop><stop offset="0.4" stop-color="#666"></stop><stop offset="0.6" stop-color="#666"></stop><stop offset="0.9"></stop></linearGradient><radialGradient id="radial-gradient" cx="264.58" cy="40577" fx="255.02795726054256" r="25.19" gradientTransform="translate(8.19 -7643.26) scale(1.13 0.2)" gradientUnits="userSpaceOnUse"><stop offset="0" stop-color="#58595b"></stop><stop offset="0.15" stop-color="#58595b" stop-opacity="0.73"></stop><stop offset="0.37" stop-color="#58595b" stop-opacity="0.41"></stop><stop offset="0.58" stop-color="#58595b" stop-opacity="0.18"></stop><stop offset="0.8" stop-color="#58595b" stop-opacity="0.05"></stop><stop offset="1" stop-color="#58595b" stop-opacity="0"></stop></radialGradient><mask id="mask" x="4" y="-8.04" width="27.54" height="27.17" maskUnits="userSpaceOnUse"><g transform="translate(-266.45 -268.52)"><path class="cls-1" d="M298,274.07a13.77,13.77,0,1,1-13.77-13.59A13.67,13.67,0,0,1,298,274.07Z"></path></g></mask><radialGradient id="radial-gradient-2" cx="287.74" cy="277.57" r="7.84" gradientUnits="userSpaceOnUse"><stop offset="0" stop-color="#4d4d4d"></stop><stop offset="0.09" stop-color="#6a6a6a"></stop><stop offset="0.24" stop-color="#979797"></stop><stop offset="0.4" stop-color="#bdbdbd"></stop><stop offset="0.55" stop-color="#dadada"></stop><stop offset="0.7" stop-color="#eee"></stop><stop offset="0.86" stop-color="#fbfbfb"></stop><stop offset="1" stop-color="#fff"></stop></radialGradient></defs><line class="cls-2" x1="58.78" y1="40.74" x2="299.73" y2="40.74"></line><path class="cls-3" d="M345.56,322c0,3.71-17.71,6.72-39.56,6.72s-39.55-3-39.55-6.72,17.71-6.74,39.55-6.74S345.56,318.28,345.56,322Z" transform="translate(-266.45 -268.52)"></path><path class="cls-4" d="M310.65,268.52H282.94a6.05,6.05,0,0,0-6.05,6.05v24.74a7.21,7.21,0,0,0,2.28,5L296.79,322l17.63-17.72a7.21,7.21,0,0,0,2.28-5V274.57A6.05,6.05,0,0,0,310.65,268.52Z" transform="translate(-266.45 -268.52)"></path><g class="cls-5"><path class="cls-6" d="M283.51,270.27a4.13,4.13,0,0,0-4.12,4.12l.07,10.49a15.28,15.28,0,0,0,1.45-4.23c.52-2.66.1-6.62,1.14-7.71s5-.07,8-.82a59.07,59.07,0,0,0,6-1.84Z" transform="translate(-266.45 -268.52)"></path></g><circle class="cls-7" cx="297.06" cy="289.94" r="9.3" transform="translate(-384.45 15.54) rotate(-43.49)"></circle><polygon class="cls-8" points="28.44 15.57 32.79 15.57 32.79 19.24 36.46 19.24 36.46 23.59 32.79 23.59 32.79 27.26 28.44 27.26 28.44 23.59 24.77 23.59 24.77 19.24 28.44 19.24 28.44 15.57"></polygon><path class="cls-9" d="M329.26,317.1h.68v4.2a1.89,1.89,0,0,1-.46,1.5,3.46,3.46,0,0,1-1.93.36,3.51,3.51,0,0,1-1.87-.35,1.49,1.49,0,0,1-.49-1.31v-4.4h.67v4.2c0,.57.1.92.28,1.07a2.65,2.65,0,0,0,1.36.22,2.9,2.9,0,0,0,1.47-.22c.19-.14.29-.5.29-1.07Z" transform="translate(-266.45 -268.52)"></path><path class="cls-9" d="M333.2,318.9h.61v.63h0a1.39,1.39,0,0,1,1.37-.71c.71,0,1.15.24,1.3.71h0a1.5,1.5,0,0,1,1.44-.71,1.33,1.33,0,0,1,1.49,1.52v2.75h-.62v-2.81a1,1,0,0,0-.2-.75,1.06,1.06,0,0,0-.74-.2,1.36,1.36,0,0,0-1,.28,1.51,1.51,0,0,0-.26,1.05v2.43H336v-2.94c0-.54-.31-.82-.92-.82-.84,0-1.26.46-1.26,1.37v2.39h-.61Z" transform="translate(-266.45 -268.52)"></path><path class="cls-9" d="M342.64,318.9h3v.59l-2.51,3.1h2.51v.51h-3.24v-.59l2.51-3.1h-2.3Z" transform="translate(-266.45 -268.52)"></path><path class="cls-9" d="M352,318.9v4.2h-.62l0-.55v0a1.38,1.38,0,0,1-1.37.63,1.3,1.3,0,0,1-1.47-1.47V318.9h.61v2.79a1.18,1.18,0,0,0,.19.77,1.13,1.13,0,0,0,.75.19,1.34,1.34,0,0,0,1-.29,1.55,1.55,0,0,0,.27-1.06v-2.4Z" transform="translate(-266.45 -268.52)"></path><path class="cls-9" d="M358.79,318.9v4.47a1.6,1.6,0,0,1-.4,1.26A2.29,2.29,0,0,1,357,325a2.11,2.11,0,0,1-1.29-.29,1.38,1.38,0,0,1-.34-1.09h.59a.94.94,0,0,0,.2.71,1.57,1.57,0,0,0,.88.16,1.49,1.49,0,0,0,.94-.21,1.09,1.09,0,0,0,.25-.83v-.84h0c-.16.39-.61.59-1.37.59a1.51,1.51,0,0,1-1.28-.46,2.87,2.87,0,0,1-.35-1.68,3,3,0,0,1,.35-1.72,1.61,1.61,0,0,1,1.33-.47,1.35,1.35,0,0,1,1.35.64h0l0-.56Zm-1.83.44c-.49,0-.8.11-.94.31a2.58,2.58,0,0,0-.22,1.34,2.65,2.65,0,0,0,.22,1.35c.14.2.45.31.94.31s.81-.11,1-.34a2.77,2.77,0,0,0,.24-1.42,2.2,2.2,0,0,0-.24-1.25A1.17,1.17,0,0,0,357,319.34Z" transform="translate(-266.45 -268.52)"></path><path class="cls-7" d="M365.88,317.1h.61v7.5h-.61Z" transform="translate(-266.45 -268.52)"></path><path class="cls-9" d="M373.62,323.1v-6h2.85a2,2,0,0,1,1.37.38,1.84,1.84,0,0,1,.39,1.33A2.31,2.31,0,0,1,378,320a1.18,1.18,0,0,1-.83.42h0c.64.05,1,.44,1,1.16v1.54h-.68v-1.38c0-.7-.3-1.05-.91-1.05h-2.27v2.43Zm.67-3h2a1.66,1.66,0,0,0,1.05-.24,1.12,1.12,0,0,0,.28-.89,1.76,1.76,0,0,0-.2-1.05,1.16,1.16,0,0,0-.9-.25h-2.19Z" transform="translate(-266.45 -268.52)"></path><path class="cls-9" d="M384.27,321.83h.63V322a1,1,0,0,1-.4.92,2.72,2.72,0,0,1-1.39.26,2,2,0,0,1-1.53-.43,3,3,0,0,1-.36-1.78,2.71,2.71,0,0,1,.37-1.69,1.86,1.86,0,0,1,1.43-.43,2.19,2.19,0,0,1,1.52.38,2.38,2.38,0,0,1,.36,1.57v.33h-3a2.32,2.32,0,0,0,.22,1.27q.21.27,1,.27a2.23,2.23,0,0,0,1-.13.62.62,0,0,0,.22-.56Zm0-1.2v-.2a1.21,1.21,0,0,0-.22-.88,1.51,1.51,0,0,0-1-.21,1.37,1.37,0,0,0-1,.24,1.73,1.73,0,0,0-.22,1.05Z" transform="translate(-266.45 -268.52)"></path><path class="cls-9" d="M388.63,317.1v.69H388v-.69Zm0,1.8v4.2H388v-4.2Z" transform="translate(-266.45 -268.52)"></path><path class="cls-9" d="M391.86,318.9h.59v.57h0c.19-.43.66-.65,1.4-.65a1.25,1.25,0,0,1,1.54,1.53v2.74h-.62v-2.84a1,1,0,0,0-.2-.73,1.26,1.26,0,0,0-.8-.19q-1.29,0-1.29,1.23v2.53h-.62Z" transform="translate(-266.45 -268.52)"></path><path class="cls-9" d="M399.27,317.1v.69h-.62v-.69Zm0,1.8v4.2h-.62v-4.2Z" transform="translate(-266.45 -268.52)"></path><path class="cls-9" d="M406,318.9v4.47a1.64,1.64,0,0,1-.39,1.26,2.35,2.35,0,0,1-1.45.34,2.11,2.11,0,0,1-1.29-.29,1.38,1.38,0,0,1-.34-1.09h.59a.94.94,0,0,0,.2.71,1.57,1.57,0,0,0,.88.16,1.49,1.49,0,0,0,.94-.21,1.05,1.05,0,0,0,.25-.83v-.84h0c-.16.39-.61.59-1.37.59a1.51,1.51,0,0,1-1.28-.46,2.87,2.87,0,0,1-.35-1.68,3,3,0,0,1,.36-1.72,1.57,1.57,0,0,1,1.32-.47,1.35,1.35,0,0,1,1.35.64h0l0-.56Zm-1.83.44a1.12,1.12,0,0,0-.94.31A2.58,2.58,0,0,0,403,321a2.65,2.65,0,0,0,.22,1.35,1.57,1.57,0,0,0,1.91,0,2.92,2.92,0,0,0,.23-1.42,2.31,2.31,0,0,0-.23-1.25A1.21,1.21,0,0,0,404.18,319.34Z" transform="translate(-266.45 -268.52)"></path><path class="cls-9" d="M412.67,318.9v4.2h-.62l0-.55v0a1.38,1.38,0,0,1-1.37.63,1.3,1.3,0,0,1-1.47-1.47V318.9h.61v2.79a1.18,1.18,0,0,0,.19.77,1.13,1.13,0,0,0,.75.19,1.34,1.34,0,0,0,1-.29,1.55,1.55,0,0,0,.27-1.06v-2.4Z" transform="translate(-266.45 -268.52)"></path><path class="cls-9" d="M416,318.9h.59l0,.57h0c.19-.43.65-.65,1.4-.65a1.77,1.77,0,0,1,1.22.32,1.74,1.74,0,0,1,.31,1.21v2.74h-.61v-2.84a1,1,0,0,0-.21-.73,1.24,1.24,0,0,0-.79-.19c-.87,0-1.3.41-1.3,1.23v2.53H416Z" transform="translate(-266.45 -268.52)"></path><path class="cls-9" d="M426.26,318.9v4.47a1.64,1.64,0,0,1-.39,1.26,2.35,2.35,0,0,1-1.45.34,2.11,2.11,0,0,1-1.29-.29,1.42,1.42,0,0,1-.34-1.09h.59a.94.94,0,0,0,.2.71,1.57,1.57,0,0,0,.88.16,1.54,1.54,0,0,0,1-.21,1.1,1.1,0,0,0,.24-.83v-.84h0c-.15.39-.61.59-1.37.59a1.51,1.51,0,0,1-1.28-.46,4.25,4.25,0,0,1,0-3.4,1.58,1.58,0,0,1,1.33-.47,1.37,1.37,0,0,1,1.35.64h0l0-.56Zm-1.83.44a1.12,1.12,0,0,0-.94.31,2.69,2.69,0,0,0-.22,1.34,2.76,2.76,0,0,0,.22,1.35,1.57,1.57,0,0,0,1.91,0,2.92,2.92,0,0,0,.23-1.42,2.31,2.31,0,0,0-.23-1.25A1.21,1.21,0,0,0,424.43,319.34Z" transform="translate(-266.45 -268.52)"></path><path class="cls-7" d="M433.35,317.1H434v7.5h-.62Z" transform="translate(-266.45 -268.52)"></path><path class="cls-9" d="M441.77,317.1v5.37h3.08v.63h-3.76v-6Z" transform="translate(-266.45 -268.52)"></path><path class="cls-9" d="M448.21,320.07h-.61a1.15,1.15,0,0,1,.34-1,2.26,2.26,0,0,1,1.29-.26,2.35,2.35,0,0,1,1.42.31,1.49,1.49,0,0,1,.37,1.18v2.78h-.61l0-.46h0a1.6,1.6,0,0,1-1.42.52c-1.07,0-1.6-.43-1.6-1.28a1.28,1.28,0,0,1,.36-1.05,2.15,2.15,0,0,1,1.29-.29c.74,0,1.18.14,1.32.43h0v-.51a1.47,1.47,0,0,0-.2-.93,1.18,1.18,0,0,0-.87-.22c-.75,0-1.13.22-1.13.64Zm1,.95a1.85,1.85,0,0,0-.92.15c-.14.1-.21.31-.21.64a.82.82,0,0,0,.21.67,1.52,1.52,0,0,0,.86.17c.86,0,1.3-.27,1.3-.79a.78.78,0,0,0-.25-.67A2,2,0,0,0,449.2,321Z" transform="translate(-266.45 -268.52)"></path><path class="cls-9" d="M457.83,318.9v4.47a1.6,1.6,0,0,1-.4,1.26A2.31,2.31,0,0,1,456,325a2.07,2.07,0,0,1-1.28-.29,1.38,1.38,0,0,1-.34-1.09H455a.94.94,0,0,0,.2.71,1.53,1.53,0,0,0,.88.16,1.51,1.51,0,0,0,.94-.21,1.1,1.1,0,0,0,.24-.83v-.84h0c-.16.39-.62.59-1.37.59a1.54,1.54,0,0,1-1.29-.46,4.25,4.25,0,0,1,0-3.4,1.6,1.6,0,0,1,1.33-.47,1.35,1.35,0,0,1,1.35.64h0l0-.56Zm-1.83.44a1.14,1.14,0,0,0-.95.31,2.72,2.72,0,0,0-.21,1.34,2.8,2.8,0,0,0,.21,1.35,1.14,1.14,0,0,0,.95.31,1.09,1.09,0,0,0,1-.34,2.77,2.77,0,0,0,.24-1.42,2.2,2.2,0,0,0-.24-1.25A1.18,1.18,0,0,0,456,319.34Z" transform="translate(-266.45 -268.52)"></path><path class="cls-9" d="M464,321.83h.63V322a1,1,0,0,1-.4.92,2.72,2.72,0,0,1-1.39.26,2,2,0,0,1-1.53-.43,3,3,0,0,1-.36-1.78,2.71,2.71,0,0,1,.37-1.69,1.86,1.86,0,0,1,1.43-.43,2.19,2.19,0,0,1,1.52.38,2.38,2.38,0,0,1,.36,1.57v.33h-3a2.32,2.32,0,0,0,.22,1.27q.21.27,1,.27a2.23,2.23,0,0,0,1-.13A.62.62,0,0,0,464,322Zm0-1.2v-.2a1.21,1.21,0,0,0-.22-.88,1.51,1.51,0,0,0-1-.21,1.37,1.37,0,0,0-1,.24,1.73,1.73,0,0,0-.22,1.05Z" transform="translate(-266.45 -268.52)"></path><path class="cls-9" d="M467.79,318.9h.61l-.06.48h0a1.3,1.3,0,0,1,1.2-.59,1,1,0,0,1,1.16,1.19v.29h-.61v-.1c0-.11,0-.19,0-.22,0-.44-.24-.65-.71-.65-.68,0-1,.42-1,1.27v2.52h-.61Z" transform="translate(-266.45 -268.52)"></path><path class="cls-9" d="M476.89,318.9v4.2h-.61l0-.55v0a1.39,1.39,0,0,1-1.37.63,1.3,1.3,0,0,1-1.47-1.47V318.9h.61v2.79a1.12,1.12,0,0,0,.19.77,1.1,1.1,0,0,0,.74.19,1.36,1.36,0,0,0,1-.29,1.55,1.55,0,0,0,.27-1.06v-2.4Z" transform="translate(-266.45 -268.52)"></path><path class="cls-9" d="M480.18,318.9h.6l0,.57h0c.18-.43.65-.65,1.39-.65a1.25,1.25,0,0,1,1.54,1.53v2.74h-.61v-2.84a1,1,0,0,0-.21-.73,1.26,1.26,0,0,0-.8-.19q-1.29,0-1.29,1.23v2.53h-.62Z" transform="translate(-266.45 -268.52)"></path><path class="cls-9" d="M490.49,318.9v4.47a1.6,1.6,0,0,1-.4,1.26,2.31,2.31,0,0,1-1.45.34,2.09,2.09,0,0,1-1.28-.29,1.38,1.38,0,0,1-.34-1.09h.59a.94.94,0,0,0,.2.71,1.55,1.55,0,0,0,.88.16,1.49,1.49,0,0,0,.94-.21,1.09,1.09,0,0,0,.25-.83v-.84h0c-.16.39-.61.59-1.37.59a1.51,1.51,0,0,1-1.28-.46,2.87,2.87,0,0,1-.35-1.68,3,3,0,0,1,.35-1.72,1.61,1.61,0,0,1,1.33-.47,1.35,1.35,0,0,1,1.35.64h0l0-.56Zm-1.83.44c-.49,0-.8.11-.94.31a2.58,2.58,0,0,0-.22,1.34,2.65,2.65,0,0,0,.22,1.35c.14.2.45.31.94.31s.81-.11,1-.34a2.77,2.77,0,0,0,.24-1.42,2.2,2.2,0,0,0-.24-1.25A1.17,1.17,0,0,0,488.66,319.34Z" transform="translate(-266.45 -268.52)"></path><path class="cls-7" d="M497.58,317.1h.61v7.5h-.61Z" transform="translate(-266.45 -268.52)"></path><path class="cls-9" d="M505.75,317.67v2h3.05v.57h-3.05v2.25h3.18v.57h-3.85v-6h3.85v.57Z" transform="translate(-266.45 -268.52)"></path><path class="cls-9" d="M511.92,318.9h.59v.57h0c.19-.43.66-.65,1.4-.65a1.25,1.25,0,0,1,1.54,1.53v2.74h-.62v-2.84a1,1,0,0,0-.2-.73,1.28,1.28,0,0,0-.8-.19q-1.29,0-1.29,1.23v2.53h-.62Z" transform="translate(-266.45 -268.52)"></path><path class="cls-9" d="M520.94,318.9v.51h-1.62V322c0,.44.2.67.6.67a.53.53,0,0,0,.59-.6v-.44h.57v.31c0,.83-.39,1.24-1.18,1.24s-1.21-.35-1.21-1v-2.72h-.58v-.51h.58v-1h.61v1Z" transform="translate(-266.45 -268.52)"></path><path class="cls-9" d="M527.05,320h-.62c0-.29-.06-.47-.17-.54a2.33,2.33,0,0,0-.92-.11,1.91,1.91,0,0,0-.87.12c-.12.07-.18.25-.18.53a.59.59,0,0,0,.61.68l.5,0,.63,0a1.26,1.26,0,0,1,.76,2.16,2.51,2.51,0,0,1-1.38.27,2.79,2.79,0,0,1-1.42-.25,1,1,0,0,1-.39-.92v-.23h.64v.2a.62.62,0,0,0,.21.55,1.68,1.68,0,0,0,.83.14,2.18,2.18,0,0,0,1-.15q.24-.13.24-.6c0-.44-.2-.67-.61-.67a4.79,4.79,0,0,1-1.84-.23,1,1,0,0,1-.44-1,1,1,0,0,1,.35-.94,2.69,2.69,0,0,1,1.39-.24c1.11,0,1.67.34,1.67,1Z" transform="translate(-266.45 -268.52)"></path><path class="cls-9" d="M531.94,318.83a2,2,0,0,1,1.51.41,4.58,4.58,0,0,1,0,3.51,3,3,0,0,1-3,0,4.58,4.58,0,0,1,0-3.51A2,2,0,0,1,531.94,318.83Zm0,.51c-.54,0-.88.09-1,.27a2.91,2.91,0,0,0-.2,1.39,2.86,2.86,0,0,0,.2,1.38c.13.18.47.27,1,.27s.89-.09,1-.27a2.86,2.86,0,0,0,.2-1.38,2.91,2.91,0,0,0-.2-1.39Q532.77,319.34,531.94,319.34Z" transform="translate(-266.45 -268.52)"></path><path class="cls-9" d="M537,318.9h.62l-.06.48h0a1.3,1.3,0,0,1,1.2-.59A1,1,0,0,1,539.9,320v.29h-.61v-.1c0-.11,0-.19,0-.22,0-.44-.24-.65-.7-.65-.69,0-1,.42-1,1.27v2.52H537Z" transform="translate(-266.45 -268.52)"></path><path class="cls-9" d="M546.16,318.9v4.47a1.64,1.64,0,0,1-.39,1.26,2.35,2.35,0,0,1-1.45.34,2.11,2.11,0,0,1-1.29-.29,1.42,1.42,0,0,1-.34-1.09h.59a.94.94,0,0,0,.2.71,1.57,1.57,0,0,0,.88.16,1.54,1.54,0,0,0,.95-.21,1.1,1.1,0,0,0,.24-.83v-.84h0c-.15.39-.61.59-1.37.59a1.51,1.51,0,0,1-1.28-.46,4.25,4.25,0,0,1,0-3.4,1.6,1.6,0,0,1,1.33-.47,1.37,1.37,0,0,1,1.35.64h0l0-.56Zm-1.83.44a1.12,1.12,0,0,0-.94.31,2.69,2.69,0,0,0-.22,1.34,2.76,2.76,0,0,0,.22,1.35,1.57,1.57,0,0,0,1.91,0,2.92,2.92,0,0,0,.23-1.42,2.31,2.31,0,0,0-.23-1.25A1.21,1.21,0,0,0,544.33,319.34Z" transform="translate(-266.45 -268.52)"></path><path class="cls-9" d="M552.82,318.9v4.2h-.62l0-.55,0,0a1.38,1.38,0,0,1-1.37.63,1.3,1.3,0,0,1-1.47-1.47V318.9H550v2.79a1.18,1.18,0,0,0,.18.77,1.13,1.13,0,0,0,.75.19,1.34,1.34,0,0,0,1-.29,1.55,1.55,0,0,0,.27-1.06v-2.4Z" transform="translate(-266.45 -268.52)"></path><path class="cls-9" d="M556.11,318.9h.59l0,.57h0c.19-.43.65-.65,1.4-.65a1.77,1.77,0,0,1,1.22.32,1.74,1.74,0,0,1,.32,1.21v2.74H559v-2.84a1,1,0,0,0-.21-.73,1.22,1.22,0,0,0-.79-.19c-.87,0-1.3.41-1.3,1.23v2.53h-.61Z" transform="translate(-266.45 -268.52)"></path><path class="cls-9" d="M566.42,318.9v4.47a1.64,1.64,0,0,1-.4,1.26,2.35,2.35,0,0,1-1.45.34,2.05,2.05,0,0,1-1.28-.29,1.38,1.38,0,0,1-.35-1.09h.6c0,.36.06.6.2.71a1.51,1.51,0,0,0,.87.16,1.52,1.52,0,0,0,.95-.21,1.1,1.1,0,0,0,.24-.83v-.84h0c-.16.39-.62.59-1.37.59a1.53,1.53,0,0,1-1.29-.46,4.25,4.25,0,0,1,0-3.4,1.6,1.6,0,0,1,1.33-.47,1.35,1.35,0,0,1,1.35.64h0l0-.56Zm-1.84.44a1.13,1.13,0,0,0-.94.31,2.72,2.72,0,0,0-.21,1.34,2.8,2.8,0,0,0,.21,1.35,1.13,1.13,0,0,0,.94.31,1.11,1.11,0,0,0,1-.34,2.92,2.92,0,0,0,.23-1.42,2.31,2.31,0,0,0-.23-1.25A1.21,1.21,0,0,0,564.58,319.34Z" transform="translate(-266.45 -268.52)"></path><path class="cls-4" d="M345.1,280.31h-4.48c0-.23,0-.39,0-.5-.1-1.36-.4-2.21-.9-2.56s-1.66-.52-3.51-.52a9.69,9.69,0,0,0-4.26.6,2.76,2.76,0,0,0-1,2.54c0,1.52.27,2.44.82,2.74s2.33.55,5.38.71c3.6.2,5.93.72,7,1.54s1.59,2.55,1.59,5.16c0,3.21-.62,5.29-1.86,6.22s-4,1.41-8.21,1.41q-5.7,0-7.57-1.38t-1.87-5.6l0-.88h4.47l0,.51c0,1.69.29,2.72.88,3.1s2.2.57,4.84.57q3.08,0,3.93-.66c.57-.43.85-1.44.85-3a3.09,3.09,0,0,0-.65-2.33,5.08,5.08,0,0,0-2.79-.7l-2.53-.16q-5.74-.33-7.33-1.59t-1.6-5.4q0-4.25,1.92-5.65t7.68-1.4q5.46,0,7.36,1.29t1.89,5.05Z" transform="translate(-266.45 -268.52)"></path><path class="cls-4" d="M372.47,280.5l-3.79,16.94h-6l-1.7-7.58c-.29-1.31-.51-2.31-.65-3l-.3-1.48-.31-1.49h-.12l-.3,1.49-.3,1.5c-.13.66-.34,1.65-.64,3l-1.7,7.58h-6.08l-3.77-16.94h4.09l1.63,7.85c.2,1,.4,2,.6,3.16l.29,1.57.3,1.58h.07l.35-1.58.34-1.57c.18-.8.42-1.84.73-3.14l1.84-7.87h5.17l1.84,7.87c.35,1.48.59,2.52.73,3.14l.34,1.57.33,1.58h.09l.3-1.58.29-1.57c.2-1.09.4-2.14.62-3.16l1.64-7.85Z" transform="translate(-266.45 -268.52)"></path><path class="cls-4" d="M378.58,273.26v3.38h-4.05v-3.38Zm0,7.24v16.94h-4.05V280.5Z" transform="translate(-266.45 -268.52)"></path><path class="cls-4" d="M396.71,285.16h-4l-.06-.32c-.08-.81-.31-1.32-.7-1.52a7.68,7.68,0,0,0-2.79-.3c-2.11,0-3.17.68-3.17,2.05,0,.94.19,1.49.56,1.67a15.43,15.43,0,0,0,3.78.42c2.9.15,4.78.53,5.65,1.16s1.32,1.9,1.32,3.84-.59,3.5-1.75,4.3-3.25,1.19-6.26,1.19-4.87-.36-5.94-1.08-1.59-2.07-1.59-4v-.42H386a3.37,3.37,0,0,0-.11.56q-.25,2.25,3.47,2.25c2.56,0,3.85-.74,3.85-2.23s-.81-2.14-2.41-2.14q-5.44,0-7.17-1c-1.15-.68-1.73-2.11-1.73-4.27,0-1.94.53-3.25,1.58-3.93s3.07-1,6.06-1q4.23,0,5.69,1C396.22,281.94,396.71,283.24,396.71,285.16Z" transform="translate(-266.45 -268.52)"></path><path class="cls-4" d="M414.65,285.16h-4l-.05-.32c-.08-.81-.32-1.32-.7-1.52a7.68,7.68,0,0,0-2.79-.3c-2.11,0-3.17.68-3.17,2.05,0,.94.19,1.49.56,1.67a15.43,15.43,0,0,0,3.78.42c2.89.15,4.78.53,5.65,1.16s1.31,1.9,1.31,3.84-.58,3.5-1.74,4.3-3.25,1.19-6.27,1.19-4.87-.36-5.93-1.08-1.59-2.07-1.59-4v-.42H404a3.18,3.18,0,0,0-.1.56q-.25,2.25,3.47,2.25t3.84-2.23c0-1.43-.8-2.14-2.41-2.14q-5.43,0-7.16-1c-1.16-.68-1.73-2.11-1.73-4.27,0-1.94.52-3.25,1.58-3.93s3.07-1,6.05-1q4.25,0,5.7,1C414.16,281.94,414.65,283.24,414.65,285.16Z" transform="translate(-266.45 -268.52)"></path><path class="cls-4" d="M427.19,275.79v21.65h-2.72V275.79h-7.89v-2.53H435v2.53Z" transform="translate(-266.45 -268.52)"></path><path class="cls-4" d="M437.56,280.5H440l-.25,1.95,0,.06a5.25,5.25,0,0,1,4.86-2.4q4.67,0,4.67,4.82v1.17h-2.45l0-.42c0-.45.06-.75.06-.91,0-1.73-.95-2.6-2.84-2.6q-4.14,0-4.14,5.12v10.15h-2.48Z" transform="translate(-266.45 -268.52)"></path><path class="cls-4" d="M454.35,285.25h-2.46c0-2,.44-3.3,1.34-4s2.63-1,5.23-1q4.23,0,5.72,1.24c1,.84,1.49,2.42,1.49,4.76v11.18h-2.48l.2-1.82-.06,0q-1.41,2.08-5.75,2.09-6.42,0-6.42-5.16,0-3.06,1.44-4.23t5.19-1.17c3,0,4.76.58,5.35,1.75h.05v-2.06c0-1.94-.26-3.19-.8-3.76s-1.69-.86-3.49-.86c-3,0-4.57.85-4.57,2.57C454.33,284.84,454.34,285,454.35,285.25Zm4,3.81c-1.9,0-3.14.2-3.71.6s-.86,1.27-.86,2.59.28,2.28.85,2.72a6.12,6.12,0,0,0,3.45.66q5.25,0,5.25-3.19a3,3,0,0,0-1-2.69A7.75,7.75,0,0,0,458.34,289.06Z" transform="translate(-266.45 -268.52)"></path><path class="cls-4" d="M470.26,280.5h2.39l-.07,2.31.07.05c.76-1.74,2.63-2.6,5.63-2.6,2.43,0,4.06.42,4.92,1.27s1.28,2.48,1.28,4.89v11H482V286a3.93,3.93,0,0,0-.83-2.94,4.93,4.93,0,0,0-3.2-.75q-5.24,0-5.23,4.94v10.19h-2.48Z" transform="translate(-266.45 -268.52)"></path><path class="cls-4" d="M502.09,284.93h-2.48c0-1.18-.24-1.91-.71-2.19a9.23,9.23,0,0,0-3.7-.43,8.35,8.35,0,0,0-3.51.45c-.49.3-.74,1-.74,2.17a2.38,2.38,0,0,0,2.5,2.73l2,.11,2.53.12q4.61.23,4.61,4.82c0,1.9-.51,3.21-1.52,3.91s-2.88,1.07-5.58,1.07-4.69-.34-5.73-1-1.57-1.91-1.57-3.7l0-.93h2.56l0,.8a2.46,2.46,0,0,0,.85,2.22,6.68,6.68,0,0,0,3.35.56,9,9,0,0,0,4-.58,2.66,2.66,0,0,0,1-2.45q0-2.67-2.43-2.67-5.65,0-7.43-1c-1.19-.64-1.78-2-1.78-4s.47-3.16,1.41-3.8,2.8-.94,5.6-.94q6.74,0,6.73,4.05Z" transform="translate(-266.45 -268.52)"></path><path class="cls-4" d="M506.15,280.5h2.48l-.12,2.15.07.05q1.29-2.44,5.56-2.44c2.52,0,4.25.63,5.19,1.91s1.42,3.62,1.42,7.05c0,3.18-.48,5.38-1.44,6.62s-2.65,1.85-5.1,1.85q-4.19,0-5.53-2.25h-.05v9.26h-2.48Zm7.3,1.81c-2,0-3.28.43-3.88,1.29s-.9,2.69-.9,5.51q0,3.92,1,5.22c.65.87,2,1.3,3.92,1.3s3.09-.42,3.69-1.25.89-2.57.89-5.2q0-4.32-.86-5.59C516.7,282.74,515.42,282.31,513.45,282.31Z" transform="translate(-266.45 -268.52)"></path><path class="cls-4" d="M531.66,280.26q4.7,0,6.09,1.63c.94,1.08,1.4,3.44,1.4,7.08s-.46,6-1.4,7.09-3,1.63-6.09,1.63-5.14-.55-6.08-1.63-1.4-3.45-1.4-7.09.47-6,1.4-7.08S528.54,280.26,531.66,280.26Zm0,2.05c-2.2,0-3.56.36-4.08,1.07s-.79,2.58-.79,5.59.26,4.88.79,5.59,1.88,1.07,4.08,1.07,3.58-.35,4.1-1.07.79-2.58.79-5.59-.26-4.87-.79-5.59S533.87,282.31,531.66,282.31Z" transform="translate(-266.45 -268.52)"></path><path class="cls-4" d="M543.26,280.5h2.48l-.24,1.95,0,.06a5.25,5.25,0,0,1,4.85-2.4q4.68,0,4.68,4.82l0,1.17h-2.44l0-.42c0-.45.05-.75.05-.91,0-1.73-.94-2.6-2.83-2.6-2.76,0-4.15,1.71-4.15,5.12v10.15h-2.48Z" transform="translate(-266.45 -268.52)"></path><path class="cls-4" d="M566.45,280.5v2.06h-6.52v10.36c0,1.81.81,2.71,2.41,2.71a2.12,2.12,0,0,0,2.39-2.42l0-.84,0-.94h2.3l0,1.26q0,5-4.75,5-4.9,0-4.91-4.17v-11h-2.33V280.5h2.33v-4.07h2.48v4.07Z" transform="translate(-266.45 -268.52)"></path></svg> 